<?xml version="1.0" encoding="UTF-8" standalone="no"?>
<!-- Created with Inkscape (http://www.inkscape.org/) -->

<svg
   xmlns:dc="http://purl.org/dc/elements/1.1/"
   xmlns:cc="http://creativecommons.org/ns#"
   xmlns:rdf="http://www.w3.org/1999/02/22-rdf-syntax-ns#"
   xmlns:svg="http://www.w3.org/2000/svg"
   xmlns="http://www.w3.org/2000/svg"
   xmlns:sodipodi="http://sodipodi.sourceforge.net/DTD/sodipodi-0.dtd"
   xmlns:inkscape="http://www.inkscape.org/namespaces/inkscape"
   width="50mm"
   height="50mm"
   viewBox="0 0 50 50"
   version="1.1"
   id="svg8"
   inkscape:version="0.92.4 (5da689c313, 2019-01-14)"
   sodipodi:docname="player1.svg">
  <defs
     id="defs2" />
  <sodipodi:namedview
     id="base"
     pagecolor="#ffffff"
     bordercolor="#666666"
     borderopacity="1.0"
     inkscape:pageopacity="0.0"
     inkscape:pageshadow="2"
     inkscape:zoom="2.8"
     inkscape:cx="105.48468"
     inkscape:cy="73.619923"
     inkscape:document-units="mm"
     inkscape:current-layer="layer3"
     showgrid="false"
     inkscape:window-width="1920"
     inkscape:window-height="1051"
     inkscape:window-x="1024"
     inkscape:window-y="0"
     inkscape:window-maximized="1" />
  <metadata
     id="metadata5">
    <rdf:RDF>
      <cc:Work
         rdf:about="">
        <dc:format>image/svg+xml</dc:format>
        <dc:type
           rdf:resource="http://purl.org/dc/dcmitype/StillImage" />
        <dc:title></dc:title>
      </cc:Work>
    </rdf:RDF>
  </metadata>
  <g
     inkscape:label="Laag 1"
     inkscape:groupmode="layer"
     id="layer1"
     transform="translate(0,-247)">
    <rect
       style="fill:#eeffaa;fill-opacity:1;stroke:#ff6600;stroke-width:0.98000002;stroke-miterlimit:4;stroke-dasharray:none;stroke-opacity:1"
       id="rect815"
       width="49"
       height="49"
       x="0.5"
       y="247.5" />
  </g>
  <g
     inkscape:groupmode="layer"
     id="layer3"
     inkscape:label="Rondje"
     style="display:inline">
    <path
       style="opacity:1;vector-effect:none;fill:none;fill-opacity:1;stroke:#0000ff;stroke-width:3.66499996;stroke-linecap:round;stroke-linejoin:round;stroke-miterlimit:4;stroke-dasharray:none;stroke-dashoffset:0;stroke-opacity:1"
       d="m 29.19866,9.7455359 c -0.281964,0.061004 -0.498822,-0.1522555 -0.755952,-0.1889882 -0.124725,-0.017817 -0.251984,0 -0.377976,0 -0.125992,0 -0.251984,0 -0.377976,0 -0.125992,0 -0.252756,-0.013914 -0.377975,0 -0.284999,0.031666 -0.571225,0.1269387 -0.850448,0.1889882 -0.156784,0.034841 -0.314452,0.065763 -0.47247,0.094494 -0.839811,0.1526929 -0.30582,0.00745 -1.133929,0.2834821 -0.188988,0.063 -0.386089,0.105507 -0.566964,0.188988 -0.230572,0.106418 -0.437389,0.258473 -0.661458,0.377976 -2.273688,1.212634 0.803452,-0.511528 -1.511905,0.850447 -0.279518,0.164422 -0.573734,0.303368 -0.850447,0.47247 -0.290715,0.17766 -0.569261,0.374575 -0.850446,0.566964 -0.492355,0.336875 -1.529384,1.070751 -1.984375,1.417411 -0.320854,0.244461 -0.62996,0.503968 -0.94494,0.755952 -0.314981,0.251984 -0.645117,0.486112 -0.944941,0.755953 -0.35349,0.31814 -1.494663,1.495181 -1.795387,1.889881 -0.248892,0.326671 -0.452531,0.685865 -0.661458,1.039434 -0.552078,0.934287 -0.675361,1.216088 -1.039435,2.267857 -0.14014,0.404851 -0.281641,0.810975 -0.377976,1.228423 -0.09316,0.403682 -0.1415,0.816861 -0.188988,1.228423 -0.04707,0.407976 -0.07808,0.818066 -0.09449,1.228422 -0.03423,0.855663 -0.03573,1.349412 0.188988,2.173363 0.09701,0.355685 0.251984,0.692957 0.377977,1.039434 0.125991,0.34648 0.21947,0.706573 0.377976,1.039434 0.157926,0.331645 0.377976,0.629963 0.566964,0.944941 0.188988,0.314981 0.359541,0.641784 0.566964,0.944941 0.238618,0.34875 1.010846,1.294328 1.322917,1.606399 0.578449,0.578448 1.017739,0.855496 1.700893,1.322917 0.281184,0.192389 0.558295,0.391673 0.850446,0.566965 0.338426,0.203054 0.696766,0.371152 1.039435,0.566962 0.318929,0.182245 0.623082,0.389943 0.94494,0.566965 0.384168,0.211294 1.361548,0.681731 1.795387,0.850448 0.278498,0.108304 0.566964,0.188986 0.850446,0.283482 0.79167,0.263888 1.521455,0.514409 2.362352,0.566963 0.251493,0.01572 0.505694,0.02944 0.755952,0 0.51276,-0.06032 1.222584,-0.296252 1.700893,-0.472469 0.571553,-0.210572 1.451443,-0.583981 1.984375,-0.850448 0.353001,-0.176501 0.692957,-0.377976 1.039434,-0.566962 0.525063,-0.286399 1.47988,-0.78875 1.984375,-1.13393 0.296394,-0.202796 0.566965,-0.440974 0.850447,-0.661459 0.283483,-0.220485 0.582028,-0.422862 0.850445,-0.661458 0.299641,-0.266346 0.566965,-0.566965 0.850448,-0.850448 0.251984,-0.251983 0.527817,-0.482187 0.755951,-0.755951 0.24614,-0.295368 0.440973,-0.62996 0.661459,-0.944941 0.681344,-0.973349 1.375142,-1.947537 1.889881,-3.023809 0.176671,-0.369401 0.295799,-0.764527 0.472469,-1.133928 0.170284,-0.356045 0.402524,-0.680655 0.566966,-1.039435 0.182792,-0.398822 0.323868,-0.815639 0.472469,-1.228422 0.405339,-1.125939 0.755954,-2.286637 0.755954,-3.49628 0,-0.410684 -0.06175,-0.819047 -0.0945,-1.228423 -0.0817,-1.021209 -0.04888,-1.280583 -0.377976,-2.267857 -0.278704,-0.836111 -0.60946,-1.41264 -1.039434,-2.173363 -0.215315,-0.380945 -0.41157,-0.774713 -0.661458,-1.133928 -0.36666,-0.527072 -1.295956,-1.575751 -1.795386,-1.984375 -0.351586,-0.287662 -0.748707,-0.51519 -1.13393,-0.755953 C 35.442173,10.269569 35.084559,10.005129 34.679315,9.84003 34.226473,9.6555389 33.737235,9.5767884 33.261905,9.4620537 31.493936,9.035303 29.601427,8.8250828 27.78125,8.8950894 c -0.213868,0.00823 -1.918162,0.1657879 -2.173363,0.1889882"
       id="path865"
       inkscape:connector-curvature="0" />
  </g>
  <g
     inkscape:groupmode="layer"
     id="layer2"
     inkscape:label="Kruisje"
     style="display:none">
    <path
       transform="translate(0,-247)"
       style="opacity:1;vector-effect:none;fill:none;fill-opacity:1;stroke:#0b0000;stroke-width:3.66499996;stroke-linecap:round;stroke-linejoin:round;stroke-miterlimit:4;stroke-dasharray:none;stroke-dashoffset:0;stroke-opacity:1"
       d="m 41.955357,256.55655 c -0.157491,0.15749 -0.290007,0.34474 -0.472472,0.47247 -0.138959,0.0973 -0.327019,0.10172 -0.472469,0.18899 -0.172945,0.10376 -0.316373,0.25026 -0.472469,0.37797 -0.216654,0.17726 -1.05705,0.8803 -1.228423,1.03944 -0.228497,0.21217 -0.433504,0.4487 -0.661459,0.66146 -0.489556,0.45691 -1.02235,0.86599 -1.511906,1.32291 -0.227951,0.21276 -0.433977,0.4482 -0.661458,0.66146 -0.553405,0.51882 -1.1494,0.99105 -1.700892,1.5119 -0.291463,0.27528 -0.566965,0.56697 -0.850445,0.85045 -0.34648,0.34648 -0.692957,0.69296 -1.039437,1.03944 -0.346477,0.34647 -0.700738,0.68534 -1.039434,1.03943 -0.354425,0.37054 -0.68466,0.76373 -1.039434,1.13393 -1.1093,1.15753 -2.292485,2.24425 -3.401785,3.40178 -0.354775,0.3702 -0.685393,0.76303 -1.039435,1.13393 -1.23001,1.28858 -0.663726,0.63212 -1.984375,1.88988 -0.322567,0.30721 -0.62996,0.62996 -0.94494,0.94494 -0.629961,0.62996 -1.259921,1.25993 -1.889881,1.88989 -0.314981,0.31497 -0.622374,0.63773 -0.944941,0.94494 -0.339079,0.32293 -0.700356,0.622 -1.039434,0.94494 -0.322567,0.3072 -0.622374,0.63773 -0.944941,0.94494 -0.339079,0.32293 -0.700356,0.622 -1.039434,0.94494 -0.322567,0.3072 -0.62199,0.63813 -0.944941,0.94494 -2.002265,1.90215 0.06581,-0.14531 -1.795387,1.6064 -0.259501,0.24423 -0.503968,0.50396 -0.755952,0.75595 -0.220486,0.22049 -0.424711,0.45853 -0.661458,0.66146 -0.205726,0.17633 -0.453304,0.299 -0.661459,0.47247 -0.578984,0.48248 -0.297718,0.41049 -0.850446,0.75595 -0.119452,0.0747 -0.255673,0.1191 -0.377976,0.18899 -0.0986,0.0563 -0.178038,0.14681 -0.283482,0.18899 -0.05849,0.0234 -0.125992,0 -0.188989,0 -0.063,0 -0.125992,0 -0.188988,0 -0.063,0 -0.129224,0.0199 -0.188988,0 -0.04226,-0.0141 -0.063,-0.063 -0.09449,-0.0945 -0.116766,-0.11676 -0.09449,-0.05 -0.09449,-0.18899"
       id="path847"
       inkscape:connector-curvature="0" />
    <path
       transform="translate(0,-247)"
       style="opacity:1;vector-effect:none;fill:none;fill-opacity:1;stroke:#0b0000;stroke-width:3.66499996;stroke-linecap:round;stroke-linejoin:round;stroke-miterlimit:4;stroke-dasharray:none;stroke-dashoffset:0;stroke-opacity:1"
       d="m 14.174107,256.84003 c -0.09449,0.12599 -0.224992,0.23175 -0.283482,0.37798 -0.01655,0.0414 0.063,0.063 0.09449,0.0945 0.09449,0.0945 0.188988,0.18899 0.283482,0.28348 0.063,0.063 0.119421,0.13334 0.188988,0.18899 0.177363,0.14189 0.392474,0.23257 0.566964,0.37798 0.102662,0.0855 0.182019,0.19651 0.283483,0.28348 0.848547,0.72732 -0.04196,-0.13646 0.661458,0.56696 1.078239,1.07824 -0.249452,-0.28508 0.661458,0.75596 0.117332,0.13409 0.268585,0.23732 0.377976,0.37797 0.225517,0.28995 0.356317,0.64402 0.566965,0.94494 1.185387,1.69341 -0.419817,-0.81418 0.661458,1.03944 0.342381,0.58693 0.367033,0.52087 0.755952,1.03943 0.800889,1.06785 0.130653,0.26608 0.944941,1.22842 0.562688,0.665 1.133979,1.32298 1.700893,1.98438 0.230215,0.26858 1.015251,1.18901 1.228422,1.41741 0.855509,0.91662 0.501989,0.40704 1.322917,1.41741 0.198624,0.24446 0.36834,0.51149 0.566964,0.75595 0.211141,0.25987 0.450318,0.49609 0.661459,0.75595 0.397248,0.48893 0.755952,1.00794 1.133927,1.51191 0.377976,0.50397 0.755955,1.00794 1.13393,1.51191 0.188987,0.25198 0.385321,0.49862 0.566963,0.75595 0.196479,0.27834 0.367487,0.57424 0.566965,0.85044 0.210269,0.29114 0.443304,0.56517 0.661458,0.85045 0.191336,0.25021 0.375629,0.50575 0.566965,0.75595 0.218154,0.28528 0.451189,0.55931 0.661458,0.85045 0.199478,0.2762 0.370486,0.5721 0.566966,0.85044 0.210092,0.29764 1.026162,1.35747 1.22842,1.6064 0.183124,0.22539 0.385556,0.4347 0.566965,0.66146 0.196766,0.24596 0.361979,0.5168 0.566965,0.75596 0.173937,0.20292 0.386363,0.36994 0.566963,0.56696 0.166235,0.18134 0.306988,0.38493 0.472471,0.56696 0.374968,0.41247 0.515986,0.51682 0.944941,0.85045 0.124315,0.0967 0.2584,0.18099 0.377976,0.28348 0.101462,0.087 0.188987,0.18899 0.283483,0.28348 0.408712,0.40872 0.01482,-0.025 0.283482,0.37798 0.02471,0.0371 0.09449,0.0499 0.09449,0.0945 0,0.0315 -0.063,0 -0.09449,0 -0.180324,0 -0.01384,0.0223 -0.188989,-0.0945 -0.0586,-0.0391 -0.125992,-0.063 -0.188989,-0.0945"
       id="path849"
       inkscape:connector-curvature="0" />
  </g>
</svg>
